<?xml version="1.0" encoding="utf-8"?>
<!-- Generator: Adobe Illustrator 21.1.0, SVG Export Plug-In . SVG Version: 6.00 Build 0)  -->
<svg version="1.1" xmlns="http://www.w3.org/2000/svg" xmlns:xlink="http://www.w3.org/1999/xlink" x="0px" y="0px"
	 viewBox="0 0 792 612" style="enable-background:new 0 0 792 612;" xml:space="preserve">
<style type="text/css">
	.st0{fill:none;stroke:#000000;stroke-width:0.25;stroke-miterlimit:10;}
	.st1{fill:none;stroke:#ED1C24;stroke-width:0.25;stroke-miterlimit:10;}
</style>
<g id="Cut">
	<g>
		<g>
			<path class="st0" d="M141.7,283.2v8.9h-5.4v-8.6c-4.9-0.1-10.1-1.6-13-3.8l2-5.7c3.1,2,7.5,3.7,12.3,3.7c6.1,0,10.1-3.5,10.1-8.4
				c0-4.7-3.3-7.6-9.6-10.1c-8.7-3.4-14.1-7.3-14.1-14.8c0-7.1,5-12.5,12.9-13.7V222h5.3v8.3c5.1,0.2,8.6,1.5,11.1,3l-2.1,5.6
				c-1.8-1-5.3-2.9-10.7-2.9c-6.6,0-9,3.9-9,7.3c0,4.4,3.2,6.7,10.6,9.7c8.8,3.6,13.2,8,13.2,15.6
				C155.2,275.4,150.5,281.7,141.7,283.2z M206.9,304.7c-24.8,0-45-20.2-45-45c0-24.8,20.2-45,45-45s45,20.2,45,45
				C251.9,284.5,231.7,304.7,206.9,304.7z M276.3,283.2v8.9h-5.4v-8.6c-4.9-0.1-10.1-1.6-13-3.8l2-5.7c3.1,2,7.5,3.7,12.3,3.7
				c6.1,0,10.1-3.5,10.1-8.4c0-4.7-3.3-7.6-9.6-10.1c-8.7-3.4-14.1-7.3-14.1-14.8c0-7.1,5-12.5,12.9-13.7V222h5.3v8.3
				c5.1,0.2,8.6,1.5,11.1,3l-2.1,5.6c-1.8-1-5.3-2.9-10.7-2.9c-6.6,0-9,3.9-9,7.3c0,4.4,3.2,6.7,10.6,9.7c8.8,3.6,13.2,8,13.2,15.6
				C289.8,275.4,285.1,281.7,276.3,283.2z"/>
		</g>
		<rect x="166" y="361.1" class="st0" width="81" height="3.6"/>
		<path class="st0" d="M80.5,340.7"/>
		<path class="st0" d="M332.5,340.7"/>
		<path class="st0" d="M332.5,178.7"/>
		<path class="st0" d="M80.5,178.7"/>
		<polygon class="st0" points="332.5,340.7 323.5,500.9 89.5,500.9 80.5,340.7 80.5,340.7 17.5,321.8 17.5,197.6 80.5,178.7 
			80.5,178.7 89.5,35.6 170.5,35.6 179.5,17.6 233.5,17.6 242.5,35.6 323.5,35.6 332.5,178.7 332.5,178.7 395.5,197.6 395.5,321.8 
			332.5,340.7 		"/>
		<line class="st1" x1="170.5" y1="35.6" x2="242.5" y2="35.6"/>
	</g>
	<g>
		<g>
			<path class="st0" d="M519.7,283.2v8.9h-5.4v-8.6c-4.9-0.1-10.1-1.6-13-3.8l2-5.7c3.1,2,7.5,3.7,12.3,3.7c6.1,0,10.1-3.5,10.1-8.4
				c0-4.7-3.3-7.6-9.6-10.1c-8.7-3.4-14.1-7.3-14.1-14.8c0-7.1,5-12.5,12.9-13.7V222h5.3v8.3c5.1,0.2,8.6,1.5,11.1,3l-2.1,5.6
				c-1.8-1-5.3-2.9-10.7-2.9c-6.6,0-9,3.9-9,7.3c0,4.4,3.2,6.7,10.6,9.7c8.8,3.6,13.2,8,13.2,15.6
				C533.2,275.4,528.5,281.7,519.7,283.2z M584.9,304.7c-24.8,0-45-20.2-45-45c0-24.8,20.2-45,45-45s45,20.2,45,45
				C629.9,284.5,609.7,304.7,584.9,304.7z M654.3,283.2v8.9h-5.4v-8.6c-4.9-0.1-10.1-1.6-13-3.8l2-5.7c3.1,2,7.5,3.7,12.3,3.7
				c6.1,0,10.1-3.5,10.1-8.4c0-4.7-3.3-7.6-9.6-10.1c-8.7-3.4-14.1-7.3-14.1-14.8c0-7.1,5-12.5,12.9-13.7V222h5.3v8.3
				c5.1,0.2,8.6,1.5,11.1,3l-2.1,5.6c-1.8-1-5.3-2.9-10.7-2.9c-6.6,0-9,3.9-9,7.3c0,4.4,3.2,6.7,10.6,9.7c8.8,3.6,13.2,8,13.2,15.6
				C667.8,275.4,663.1,281.7,654.3,283.2z"/>
		</g>
		<rect x="544" y="361.1" class="st0" width="81" height="3.6"/>
		<path class="st0" d="M458.5,340.7"/>
		<path class="st0" d="M710.5,340.7"/>
		<path class="st0" d="M710.5,178.7"/>
		<path class="st0" d="M458.5,178.7"/>
		<polygon class="st0" points="710.5,340.7 701.5,500.9 467.5,500.9 458.5,340.7 458.5,340.7 395.5,321.8 395.5,197.6 458.5,178.7 
			458.5,178.7 467.5,35.6 548.5,35.6 557.5,17.6 611.5,17.6 620.5,35.6 701.5,35.6 710.5,178.7 710.5,178.7 773.5,197.6 
			773.5,321.8 710.5,340.7 		"/>
		<line class="st1" x1="548.5" y1="35.6" x2="620.5" y2="35.6"/>
	</g>
</g>
<g id="Score">
	<rect x="80.3" y="178.7" class="st1" width="252" height="162"/>
	<rect x="458.3" y="178.7" class="st1" width="252" height="162"/>
</g>
</svg>
